<svg xmlns="http://www.w3.org/2000/svg" xml:space="preserve" viewBox="0 0 167 34" width="167" height="34">
  <path fill="#0078d4" d="M4 0h159c2.2 0 4 1.8 4 4v26c0 2.2-1.8 4-4 4H4c-2.2 0-4-1.8-4-4V4c0-2.2 1.8-4 4-4z"/>
  <path fill="#fff" d="M50.3 23V12.5h3c3.9 0 5.8 1.7 5.8 5.1 0 1.6-.5 2.9-1.6 3.9-1.2 1-2.8 1.6-4.3 1.5h-2.9zm1.7-9v7.5h1.4c1.2 0 2.2-.3 2.8-1 .7-.8 1.1-1.8 1-2.9 0-2.5-1.3-3.7-3.8-3.7.1.1-1.4.1-1.4.1zm15.2 5.7h-5.1c0 .7.2 1.2.6 1.6.4.4 1 .6 1.7.6.8 0 1.5-.2 2.2-.7v1.4c-.8.5-1.8.7-2.7.6-1.1 0-2-.3-2.6-1-.7-.8-1-1.8-.9-2.9 0-1 .3-2.1 1-2.9.7-.7 1.6-1.1 2.6-1.1s1.8.3 2.4 1 .8 1.6.8 2.8v.6zm-1.6-1.2c0-.6-.2-1.1-.4-1.4-.3-.3-.7-.5-1.2-.5s-.9.2-1.2.5c-.3.4-.5.8-.6 1.4h3.4zm5 3.4v4.6h-1.7v-11h1.7v1.3c.6-1 1.4-1.5 2.6-1.5.9 0 1.7.3 2.2 1 .5.7.8 1.6.8 2.7 0 1.2-.3 2.2-.9 3-.6.8-1.5 1.2-2.5 1.1-1 0-1.7-.4-2.2-1.2zm-.1-3v.9c0 .5.2 1 .5 1.4.3.4.8.6 1.3.6.6 0 1.1-.2 1.5-.7.4-.5.5-1.2.5-2.1 0-.6-.1-1.2-.5-1.7-.3-.4-.8-.7-1.4-.6-.6 0-1.1.2-1.5.6-.2.5-.4 1.1-.4 1.6zm9.1 4.1h-1.7V11.9h1.7V23zm5.5.2c-1 0-2-.3-2.8-1-.7-.8-1.1-1.8-1-2.8a4 4 0 0 1 1.1-2.9c.8-.7 1.8-1.1 2.9-1.1 1-.1 2 .3 2.7 1 .7.7 1 1.6 1 2.9 0 1.2-.3 2.2-1.1 2.9-.7.6-1.7 1-2.8 1zm.1-6.5c-.7 0-1.2.2-1.6.7-.4.5-.6 1.1-.6 1.9 0 .8.2 1.4.6 1.9.4.5 1 .7 1.6.7.7 0 1.2-.2 1.5-.7.4-.4.5-1.1.5-1.9 0-.8-.2-1.5-.5-1.9-.3-.5-.9-.8-1.5-.7zm12.1-1.2-3.4 8.7c-.7 1.5-1.7 2.3-3 2.3-.3 0-.7 0-.9-.1V25c.3.1.5.1.7.1.6 0 1.1-.3 1.4-.9l.5-1.2-3-7.5h1.9l1.8 5.4.1.5c0-.1.1-.3.1-.5l1.9-5.5c.1.1 1.9.1 1.9.1zm8.8 7.4c-.3.1-.7.2-1.1.2-1.3 0-2-.7-2-2.2v-4.4h-1.3v-1h1.3v-1.8l1.2-.4v2.2h1.9v1h-1.9v4.2c0 .5.1.9.3 1.1.2.2.5.3.8.3.3 0 .6-.1.8-.2v1zm4.7.3c-1.1 0-2-.4-2.7-1-.7-.8-1-1.8-1-2.8 0-1.2.3-2.2 1-2.9.7-.7 1.8-1.1 2.8-1.1 1.1 0 2 .4 2.6 1 .6.7.9 1.6.9 2.9 0 1.2-.3 2.2-1 2.9-.5.6-1.5 1-2.6 1zm.1-6.9c-.8 0-1.4.3-1.8.8-.5.6-.7 1.4-.7 2.2 0 .9.2 1.6.7 2.1.4.5 1.1.8 1.8.8.8 0 1.4-.2 1.8-.8.4-.5.6-1.2.6-2.1s-.2-1.7-.6-2.2c-.4-.5-1.1-.8-1.8-.8zm18 6.7h-1.4l-1.1-2.9H122l-1.1 2.9h-1.4l4-10.5h1.3l4.1 10.5zm-2.9-4-1.7-4.5c-.1-.1-.1-.4-.2-.7-.1.3-.1.5-.2.7l-1.6 4.5h3.7zm9.5-3.1-4.4 6.1h4.4v1h-6.2v-.4l4.4-6.1h-4v-1h5.8v.4zm7.6 7.1h-1.2v-1.2c-.4.9-1.3 1.4-2.3 1.4-1.8 0-2.7-1.1-2.7-3.2v-4.5h1.2v4.3c0 1.6.6 2.4 1.8 2.4.6 0 1.1-.2 1.4-.6.4-.4.6-1 .6-1.7v-4.3h1.2V23zm6.4-6.3c-.3-.2-.6-.3-.9-.2-.5 0-.9.2-1.3.7-.4.6-.5 1.3-.5 2V23h-1.2v-7.5h1.2V17c.2-.5.4-.9.8-1.2.4-.3.8-.4 1.2-.4.3 0 .6 0 .7.1v1.2zm7.3 2.8h-5.3c0 .8.2 1.5.7 1.9.5.5 1.1.7 1.8.7a4 4 0 0 0 2.3-.8v1.1c-.7.5-1.5.7-2.6.7-.9 0-1.9-.3-2.5-1-.6-.8-1-1.8-.9-2.9 0-1.2.3-2.1 1-2.9.6-.7 1.5-1.1 2.5-1.1s1.7.3 2.3 1c.5.6.8 1.5.8 2.6l-.1.7zm-1.2-1c0-.7-.2-1.2-.5-1.6-.3-.4-.9-.6-1.4-.6-.6 0-1 .2-1.4.6-.4.4-.6.9-.7 1.6h4z"/>
  <path fill="#fff" fill-rule="evenodd" d="M24.2 6.2h7c.6 0 1.2.4 1.4 1l6.1 18c.3 1-.4 2-1.4 2h-7c-.3 0-.6-.1-.9-.3l-4.6-3.4-.9 2.7c-.2.6-.8 1-1.4 1h-4.4c-1 0-1.7-1-1.4-2l6-18c.3-.6.8-1 1.5-1zm-2.6 13.7 8.4 6.2c.1.1.2.1.3.1.3 0 .6-.3.5-.7l-3.4-10-1.3 3.3-.1.4h-5.3l.9.7zm15.7 6.3h-5.6c.1-.3.1-.6 0-1l-6-18h5.6c.2 0 .4.1.5.3l6.1 18c0 .4-.3.7-.6.7z" clip-rule="evenodd"/>
</svg>