<svg xmlns="http://www.w3.org/2000/svg" xml:space="preserve" viewBox="0 0 245.4 34" width="245.4" height="34">
  <path fill="#454142" d="M241.4 0H4C1.8 0 0 1.8 0 4v26c0 2.2 1.8 4 4 4h237.4c2.2 0 4-1.8 4-4V4c0-2.2-1.8-4-4-4z"/>
  <path fill="#fff" d="M91.9 12.3c-.5 0-.9.4-.9.9s.4.9.8.9c.6 0 .9-.4.9-.9s-.3-.9-.8-.9zm-.7 3.1h1.4v7.7h-1.4zm7.6-.2c-1.3 0-2.2.7-2.6 1.5l-.1-1.3h-1.2c0 .6.1 1.3.1 2.1v5.6h1.4v-4.7c0-.2 0-.5.1-.7.2-.8 1-1.4 1.9-1.4 1.3 0 1.8 1 1.8 2.3v4.5h1.4v-4.6c0-2.7-1.7-3.3-2.8-3.3zm13.3 3.4h2.2v3.2c-.3.2-.9.3-1.9.3-2.5 0-4.2-1.6-4.2-4.4 0-2.7 1.7-4.3 4.3-4.3 1.1 0 1.8.2 2.4.5l.3-1.1c-.5-.2-1.4-.5-2.7-.5-3.6 0-5.8 2.4-5.8 5.6 0 1.7.6 3.1 1.5 4 1.1 1 2.4 1.4 4 1.4 1.5 0 2.7-.4 3.3-.6v-5.2h-3.6v1.1zm6.4-6.3c-.5 0-.9.4-.9.9s.4.9.8.9c.6 0 .9-.4.9-.9.1-.5-.2-.9-.8-.9zm-.7 3.1h1.4v7.7h-1.4zm5.5-2.3-1.4.4v1.9h-1.2v1.1h1.2v4.2c0 .9.1 1.6.5 2 .3.4.9.6 1.5.6.5 0 1-.1 1.2-.2L125 22c-.2 0-.4.1-.8.1-.8 0-1.1-.5-1.1-1.5v-4.2h2v-1.1h-2v-2.2zm10.4 3.7h-5.2v-4.5h-1.4v10.8h1.4v-5h5.2v5h1.4V12.3h-1.4zm10.3-1.4h-1.4v4.8c0 .3 0 .5-.1.7-.3.6-.9 1.3-1.9 1.3-1.3 0-1.7-1-1.7-2.5v-4.3h-1.4v4.5c0 2.7 1.5 3.4 2.7 3.4 1.4 0 2.2-.8 2.6-1.4l.1 1.3h1.2c0-.6-.1-1.3-.1-2.1v-5.7zm6.5-.2c-1.2 0-2.1.6-2.6 1.4v-4.9h-1.4v9.4c0 .7 0 1.5-.1 2h1.2l.1-1.3c.6 1 1.5 1.5 2.6 1.5 1.7 0 3.5-1.4 3.5-4.1 0-2.4-1.4-4-3.3-4zm-.5 7c-1 0-1.8-.7-2.1-1.6 0-.2-.1-.3-.1-.5v-1.4c0-.2 0-.4.1-.6a2.2 2.2 0 0 1 2.1-1.7c1.5 0 2.3 1.3 2.3 2.9.1 1.7-.8 2.9-2.3 2.9zm14.2-8.9c.9 0 1.6.2 2.2.4l.3-1.1c-.4-.2-1.2-.5-2.6-.5-3.3 0-5.6 2.3-5.6 5.7 0 3.5 2.3 5.5 5.3 5.5 1.3 0 2.3-.3 2.8-.5l-.3-1.1c-.6.3-1.4.4-2.3.4-2.6 0-4.1-1.7-4.1-4.3.1-2.9 1.7-4.5 4.3-4.5zm7.4 1.9c-2.1 0-3.8 1.5-3.8 4.1 0 2.4 1.6 4 3.7 4 1.9 0 3.9-1.2 3.9-4.1-.1-2.4-1.6-4-3.8-4zm-.1 7c-1.4 0-2.4-1.3-2.4-3 0-1.5.7-3 2.4-3s2.3 1.7 2.3 3c0 1.8-1 3-2.3 3zm12.3-10.4h-1.4v4.6c-.4-.6-1.2-1.2-2.3-1.2-1.9 0-3.5 1.6-3.5 4.2 0 2.4 1.4 3.9 3.3 3.9 1.3 0 2.2-.7 2.6-1.5l.1 1.3h1.3c0-.5-.1-1.3-.1-2v-9.3zm-1.4 8.1c0 .2 0 .4-.1.6-.3 1.1-1.1 1.7-2.1 1.7-1.5 0-2.3-1.3-2.3-2.9 0-1.7.9-3 2.3-3 1.1 0 1.8.7 2 1.6 0 .2.1.4.1.6v1.4zm6.9-4.7c-2.3 0-3.6 1.8-3.6 4.2s1.4 3.9 3.8 3.9c1.2 0 2.1-.3 2.6-.5l-.2-1c-.5.2-1.1.4-2.1.4-1.4 0-2.6-.8-2.7-2.7h5.4v-.7c0-1.4-.7-3.6-3.2-3.6zm-2.3 3.3c.1-1 .7-2.3 2.2-2.3 1.6 0 2 1.4 2 2.3H187zm9.8.1c-1-.4-1.5-.7-1.5-1.3 0-.6.5-1.1 1.3-1.1.7 0 1.3.3 1.6.4l.4-1c-.4-.3-1.1-.5-1.9-.5-1.7 0-2.7 1-2.7 2.3 0 .9.7 1.7 2 2.2 1 .4 1.4.8 1.4 1.4 0 .6-.5 1.2-1.5 1.2-.7 0-1.4-.3-1.9-.6l-.4 1.1c.5.3 1.3.5 2.2.5 1.8 0 2.9-1 2.9-2.3.2-1.1-.5-1.8-1.9-2.3zm8-3.4c-1.3 0-2.2.6-2.8 1.5l-.1-1.3h-1.3c0 .7.1 1.5.1 2.5v8.4h1.4v-4.2c.5.8 1.4 1.2 2.4 1.2 1.8 0 3.5-1.4 3.5-4.2.1-2.3-1.3-3.9-3.2-3.9zm-.5 7c-1 0-1.9-.7-2.1-1.6 0-.2-.1-.4-.1-.6v-1.3c0-.2 0-.4.1-.6a2.2 2.2 0 0 1 2.1-1.7c1.5 0 2.3 1.3 2.3 2.9.1 1.7-.8 2.9-2.3 2.9zm11.1-3.8c0-1.6-.6-3.2-2.9-3.2-1 0-1.9.3-2.5.7l.3.9c.5-.4 1.3-.6 2-.6 1.6 0 1.8 1.2 1.8 1.8v.2c-3 0-4.7 1-4.7 2.9 0 1.1.8 2.2 2.4 2.2 1.1 0 1.9-.5 2.4-1.2l.1 1h1.3c-.1-.5-.1-1.2-.1-1.9v-2.8zm-1.4 2.1c0 .1 0 .3-.1.4-.2.7-.9 1.3-1.9 1.3-.7 0-1.3-.4-1.3-1.3 0-1.5 1.7-1.8 3.3-1.7v1.3zm7.3-4.2c.8 0 1.3.2 1.6.4l.3-1.1c-.4-.2-1.1-.4-2-.4-2.5 0-4.2 1.7-4.2 4.1 0 2.4 1.5 4 3.9 4 1 0 1.9-.3 2.2-.4l-.2-1.1c-.4.2-.9.4-1.7.4-1.5 0-2.7-1.1-2.7-2.9.1-1.7 1.1-3 2.8-3zm6.7-1.1c-2.3 0-3.6 1.8-3.6 4.2s1.4 3.9 3.8 3.9c1.2 0 2.1-.3 2.6-.5l-.2-1c-.5.2-1.1.4-2.1.4-1.4 0-2.6-.8-2.7-2.7h5.4v-.7c0-1.4-.7-3.6-3.2-3.6zm-2.3 3.3c.1-1 .7-2.3 2.2-2.3 1.6 0 2 1.4 2 2.3h-4.2zm9.8.1c-1-.4-1.5-.7-1.5-1.3 0-.6.5-1.1 1.3-1.1.7 0 1.3.3 1.6.4l.4-1c-.4-.3-1.1-.5-1.9-.5-1.7 0-2.7 1-2.7 2.3 0 .9.7 1.7 2 2.2 1 .4 1.4.8 1.4 1.4 0 .6-.5 1.2-1.5 1.2-.7 0-1.4-.3-1.9-.6l-.4 1.1c.5.3 1.3.5 2.2.5 1.8 0 2.9-1 2.9-2.3.1-1.1-.6-1.8-1.9-2.3zM54.8 12.3c-1.6 0-2.9.5-3.8 1.5s-1.4 2.4-1.4 4 .5 2.8 1.4 3.8c.9 1 2.2 1.5 3.7 1.5s2.8-.5 3.8-1.5 1.4-2.3 1.4-4c0-1.6-.5-2.9-1.4-3.9s-2.2-1.4-3.7-1.4zm1.8 8c-.5.6-1.1.9-1.9.9-.8 0-1.4-.3-1.9-.9s-.8-1.5-.8-2.5.2-1.8.7-2.5c.5-.6 1.1-.9 2-.9.8 0 1.4.3 1.9.9s.7 1.5.7 2.5c0 1.1-.2 1.9-.7 2.5zm9.2-5c-1 0-1.8.4-2.4 1.3v-1.1H61v10.9h2.3v-4.3c.5.7 1.2 1.1 2.1 1.1 1 0 1.8-.4 2.5-1.1s.9-1.8.9-3c0-1.1-.3-2.1-.8-2.7-.5-.7-1.3-1.1-2.2-1.1zm.2 5.5c-.3.4-.7.6-1.2.6-.4 0-.8-.2-1.1-.5s-.4-.8-.4-1.3V19c0-.6.2-1.1.5-1.4.3-.4.7-.5 1.2-.5 1 0 1.5.7 1.5 2-.1.7-.2 1.3-.5 1.7zm7.3-5.5c-1.1 0-1.9.4-2.7 1.1s-1.1 1.7-1.1 3c0 1.2.3 2.1 1 2.8.7.7 1.6 1 2.8 1 1.1 0 2-.2 2.7-.6V21c-.6.4-1.4.6-2.2.6-1.3 0-2-.5-2.1-1.6h4.9v-1c0-1.1-.3-2-.9-2.6-.5-.8-1.3-1.1-2.4-1.1zm-1.5 3.2c.1-.5.2-.8.5-1.1.3-.3.6-.5 1-.5.9 0 1.3.5 1.3 1.6h-2.8zm10.8-3.2c-1.1 0-1.9.5-2.4 1.4v-1.2h-2.3V23h2.3v-4.3c0-.5.1-.9.4-1.2s.6-.5 1-.5c.8 0 1.2.6 1.2 1.7V23H85v-4.6c0-2.1-.8-3.1-2.4-3.1z" class="st1"/>
  <path fill="#fff" fill-rule="evenodd" d="M27.3 6.2C21.4 6.2 16.6 11 16.6 17c0 4.8 3.1 8.8 7.3 10.2.5.1.7-.2.7-.5v-2c-3 .6-3.6-1.3-3.6-1.3-.5-1.2-1.2-1.6-1.2-1.6-1-.7.1-.7.1-.7 1.1.1 1.6 1.1 1.6 1.1 1 1.6 2.5 1.2 3.1.9.1-.7.4-1.2.7-1.4-2.4-.2-4.9-1.2-4.9-5.3 0-1.2.4-2.1 1.1-2.9-.1-.3-.5-1.4.1-2.9 0 0 .9-.3 2.9 1.1.9-.2 1.8-.4 2.7-.4.9 0 1.8.1 2.7.4 2-1.4 2.9-1.1 2.9-1.1.6 1.5.2 2.6.1 2.9a4 4 0 0 1 1.1 2.9c0 4.1-2.5 5-4.9 5.3.4.3.7 1 .7 2v3c0 .3.2.6.7.5a10.75 10.75 0 0 0-3.2-21z" clip-rule="evenodd"/>
</svg>